<svg width="166" height="38" viewBox="0 0 166 38" fill="none" xmlns="http://www.w3.org/2000/svg">
<g filter="url(#filter0_d_2237_203)">
<path d="M26.1531 25.14C25.1798 25.14 24.2998 24.9733 23.5131 24.64C22.7398 24.3067 22.1265 23.8267 21.6731 23.2C21.2198 22.5733 20.9865 21.8333 20.9731 20.98H23.9731C24.0131 21.5533 24.2131 22.0067 24.5731 22.34C24.9465 22.6733 25.4531 22.84 26.0931 22.84C26.7465 22.84 27.2598 22.6867 27.6331 22.38C28.0065 22.06 28.1931 21.6467 28.1931 21.14C28.1931 20.7267 28.0665 20.3867 27.8131 20.12C27.5598 19.8533 27.2398 19.6467 26.8531 19.5C26.4798 19.34 25.9598 19.1667 25.2931 18.98C24.3865 18.7133 23.6465 18.4533 23.0731 18.2C22.5131 17.9333 22.0265 17.54 21.6131 17.02C21.2131 16.4867 21.0131 15.78 21.0131 14.9C21.0131 14.0733 21.2198 13.3533 21.6331 12.74C22.0465 12.1267 22.6265 11.66 23.3731 11.34C24.1198 11.0067 24.9731 10.84 25.9331 10.84C27.3731 10.84 28.5398 11.1933 29.4331 11.9C30.3398 12.5933 30.8398 13.5667 30.9331 14.82H27.8531C27.8265 14.34 27.6198 13.9467 27.2331 13.64C26.8598 13.32 26.3598 13.16 25.7331 13.16C25.1865 13.16 24.7465 13.3 24.4131 13.58C24.0931 13.86 23.9331 14.2667 23.9331 14.8C23.9331 15.1733 24.0531 15.4867 24.2931 15.74C24.5465 15.98 24.8531 16.18 25.2131 16.34C25.5865 16.4867 26.1065 16.66 26.7731 16.86C27.6798 17.1267 28.4198 17.3933 28.9931 17.66C29.5665 17.9267 30.0598 18.3267 30.4731 18.86C30.8865 19.3933 31.0931 20.0933 31.0931 20.96C31.0931 21.7067 30.8998 22.4 30.5131 23.04C30.1265 23.68 29.5598 24.1933 28.8131 24.58C28.0665 24.9533 27.1798 25.14 26.1531 25.14ZM52.1806 11.04L48.2806 25H44.9806L42.3606 15.06L39.6206 25L36.3406 25.02L32.5806 11.04H35.5806L38.0406 21.88L40.8806 11.04H44.0006L46.6806 21.82L49.1606 11.04H52.1806ZM62.5689 22.34H57.0089L56.0889 25H53.1489L58.1689 11.02H61.4289L66.4489 25H63.4889L62.5689 22.34ZM61.8089 20.1L59.7889 14.26L57.7689 20.1H61.8089ZM73.1453 25.14C72.172 25.14 71.292 24.9733 70.5053 24.64C69.732 24.3067 69.1186 23.8267 68.6653 23.2C68.212 22.5733 67.9786 21.8333 67.9653 20.98H70.9653C71.0053 21.5533 71.2053 22.0067 71.5653 22.34C71.9386 22.6733 72.4453 22.84 73.0853 22.84C73.7386 22.84 74.252 22.6867 74.6253 22.38C74.9986 22.06 75.1853 21.6467 75.1853 21.14C75.1853 20.7267 75.0586 20.3867 74.8053 20.12C74.552 19.8533 74.232 19.6467 73.8453 19.5C73.472 19.34 72.952 19.1667 72.2853 18.98C71.3786 18.7133 70.6386 18.4533 70.0653 18.2C69.5053 17.9333 69.0186 17.54 68.6053 17.02C68.2053 16.4867 68.0053 15.78 68.0053 14.9C68.0053 14.0733 68.212 13.3533 68.6253 12.74C69.0386 12.1267 69.6186 11.66 70.3653 11.34C71.112 11.0067 71.9653 10.84 72.9253 10.84C74.3653 10.84 75.532 11.1933 76.4253 11.9C77.332 12.5933 77.832 13.5667 77.9253 14.82H74.8453C74.8186 14.34 74.612 13.9467 74.2253 13.64C73.852 13.32 73.352 13.16 72.7253 13.16C72.1786 13.16 71.7386 13.3 71.4053 13.58C71.0853 13.86 70.9253 14.2667 70.9253 14.8C70.9253 15.1733 71.0453 15.4867 71.2853 15.74C71.5386 15.98 71.8453 16.18 72.2053 16.34C72.5786 16.4867 73.0986 16.66 73.7653 16.86C74.672 17.1267 75.412 17.3933 75.9853 17.66C76.5586 17.9267 77.052 18.3267 77.4653 18.86C77.8786 19.3933 78.0853 20.0933 78.0853 20.96C78.0853 21.7067 77.892 22.4 77.5053 23.04C77.1186 23.68 76.552 24.1933 75.8053 24.58C75.0586 24.9533 74.172 25.14 73.1453 25.14ZM90.0128 11.04V13.3H86.2928V25H83.4928V13.3H79.7728V11.04H90.0128ZM103.636 11.04V25H100.836V19.06H94.8558V25H92.0558V11.04H94.8558V16.78H100.836V11.04H103.636ZM117.492 11.04L112.772 20.14V25H109.972V20.14L105.232 11.04H108.392L111.392 17.42L114.372 11.04H117.492ZM127.667 22.34H122.107L121.187 25H118.247L123.267 11.02H126.527L131.547 25H128.587L127.667 22.34ZM126.907 20.1L124.887 14.26L122.867 20.1H126.907Z" fill="#2D9CDB"/>
</g>
<path d="M14.4904 15.246L14.4959 15.243C13.7618 15.5745 12.9352 15.6402 12.1579 15.429C11.3537 15.2147 10.6533 14.7186 10.1844 14.031C10.1939 14.045 10.2014 14.06 10.2114 14.074L9.50194 14L9.39544 14.651C9.90199 15.3693 10.6099 15.9215 11.4299 16.238L11.3879 16.3935C11.1839 17.154 11.2504 18.0415 11.3209 18.9815C11.4129 20.2065 11.5084 21.4735 10.9884 22.448C10.4994 23.3625 9.52794 23.9075 8.38594 23.9075H8.36994C7.30544 23.9025 6.33844 23.4175 5.96344 22.7C5.69444 22.185 5.66494 21.4845 5.63344 20.744C5.58294 19.5475 5.52644 18.192 4.49944 17.0225L2.52494 14.772L1.77344 15.4315L3.74794 17.6815C4.54194 18.587 4.58894 19.7045 4.63444 20.786C4.66894 21.604 4.70444 22.45 5.07694 23.163C5.62744 24.216 6.91794 24.901 8.36544 24.9075H8.38644C9.90394 24.9075 11.2054 24.1655 11.8704 22.919C12.5274 21.6885 12.4164 20.2105 12.3179 18.9065C12.2539 18.0545 12.1934 17.249 12.3534 16.6535L12.3959 16.4945C12.6214 16.529 12.8469 16.551 13.0719 16.551C13.7005 16.5487 14.3215 16.4132 14.8939 16.1535L15.0019 15.5L14.4904 15.246Z" fill="#31373D"/>
<path d="M0.629487 16.4369C0.2796 16.038 0.102474 15.5166 0.137075 14.9872C0.171675 14.4577 0.415168 13.9637 0.813987 13.6139C1.21281 13.264 1.73428 13.0868 2.2637 13.1214C2.79311 13.1561 3.2871 13.3995 3.63699 13.7984C3.98687 14.1972 4.164 14.7187 4.1294 15.2481C4.0948 15.7775 3.85131 16.2715 3.45249 16.6214C3.25501 16.7946 3.02535 16.9273 2.77661 17.0118C2.52786 17.0962 2.26492 17.1309 2.00278 17.1138C1.47336 17.0792 0.979374 16.8357 0.629487 16.4369Z" fill="#2D9CDB"/>
<path d="M1.38318 15.7729C1.2925 15.6749 1.22237 15.5597 1.17691 15.4342C1.13146 15.3086 1.11161 15.1752 1.11853 15.0419C1.12546 14.9086 1.15901 14.778 1.21722 14.6578C1.27543 14.5376 1.35712 14.4303 1.45746 14.3422C1.5578 14.2542 1.67477 14.1871 1.80146 14.1449C1.92816 14.1027 2.06201 14.0864 2.19512 14.0968C2.32824 14.1072 2.45792 14.1442 2.57653 14.2055C2.69513 14.2668 2.80025 14.3513 2.88568 14.4539C3.05249 14.6542 3.13446 14.9118 3.11415 15.1717C3.09383 15.4316 2.97282 15.6733 2.77691 15.8453C2.581 16.0172 2.32568 16.1059 2.06534 16.0924C1.805 16.0789 1.56023 15.9642 1.38318 15.7729Z" fill="#31373D"/>
<path d="M14.8952 16.1605L14.4882 15.2475C14.9643 15.0361 15.3871 14.7207 15.7255 14.3245C16.0639 13.9283 16.3093 13.4614 16.4437 12.958L16.8327 11.5095C16.901 11.2534 16.865 10.9805 16.7326 10.7508C16.6002 10.5211 16.3821 10.3533 16.1262 10.284L16.3862 9.31804C16.8981 9.45627 17.3343 9.79188 17.599 10.2513C17.8638 10.7106 17.9356 11.2563 17.7987 11.7685L17.4097 13.217C17.2367 13.8642 16.921 14.4644 16.486 14.9737C16.0509 15.483 15.5073 15.8885 14.8952 16.1605ZM9.39217 14.6535C9.00881 14.1135 8.74951 13.4955 8.63283 12.8435C8.51614 12.1916 8.54494 11.522 8.71717 10.8825L9.10617 9.43404C9.24418 8.92208 9.57965 8.48579 10.039 8.22089C10.4983 7.95598 11.0439 7.88411 11.5562 8.02104L11.2967 8.98704C11.0405 8.9183 10.7676 8.95411 10.5379 9.0866C10.3081 9.2191 10.1404 9.43741 10.0717 9.69354L9.68267 11.1425C9.54828 11.64 9.5257 12.161 9.61656 12.6682C9.70741 13.1754 9.90946 13.6562 10.2082 14.076L9.39217 14.6535Z" fill="#2D9CDB"/>
<path d="M11.2818 10.0187C11.0897 9.967 10.926 9.84115 10.8267 9.66881C10.7274 9.49647 10.7006 9.29174 10.7523 9.09965L11.1413 7.65115C11.1942 7.46045 11.3203 7.29838 11.4921 7.20025C11.664 7.10213 11.8677 7.0759 12.0588 7.12729C12.2499 7.17868 12.4129 7.30352 12.5124 7.4746C12.6119 7.64569 12.6397 7.84915 12.5898 8.04065L12.2008 9.48915C12.1491 9.68123 12.0233 9.84493 11.8509 9.94423C11.6786 10.0435 11.4739 10.0703 11.2818 10.0187ZM15.6278 11.1862C15.4357 11.1345 15.272 11.0087 15.1727 10.8363C15.0734 10.664 15.0466 10.4592 15.0983 10.2672L15.4873 8.81865C15.5389 8.6265 15.6648 8.46274 15.8372 8.36339C16.0096 8.26405 16.2144 8.23725 16.4065 8.2889C16.5987 8.34055 16.7624 8.46642 16.8618 8.63881C16.9611 8.81121 16.9879 9.016 16.9363 9.20815L16.5473 10.6567C16.5217 10.7518 16.4776 10.841 16.4176 10.9191C16.3575 10.9972 16.2826 11.0628 16.1973 11.1119C16.1119 11.1611 16.0176 11.193 15.9199 11.2057C15.8222 11.2184 15.7229 11.2118 15.6278 11.1862Z" fill="#31373D"/>
<path d="M144.999 7.19773C143.269 3.27773 139.239 2.96773 137.359 4.63773C135.829 5.96773 135.099 9.29774 136.489 12.3277C138.899 17.5377 144.999 20.3277 144.999 20.3277C144.999 20.3277 151.099 17.5877 153.509 12.3777C154.899 9.37774 154.169 6.05774 152.639 4.68774C150.759 2.96774 146.729 3.27773 144.999 7.19773Z" stroke="#27AE60" stroke-width="1.5" stroke-linecap="round" stroke-linejoin="round"/>
<path d="M136.336 11.9688H140.996L143.996 14.9688L146.996 8.96875L148.996 11.9688H153.656" stroke="#27AE60" stroke-width="1.5" stroke-linecap="round" stroke-linejoin="round"/>
<path d="M144.5 14.5L139.5 26.5M149.5 12L156 26.5" stroke="#27AE60" stroke-width="2"/>
<path d="M142.5 21H153" stroke="#27AE60" stroke-width="2"/>
<path d="M164.598 10.644V26H161.518V10.644H164.598Z" fill="#27AE60"/>
<defs>
<filter id="filter0_d_2237_203" x="10.9766" y="2.84375" width="130.57" height="34.2969" filterUnits="userSpaceOnUse" color-interpolation-filters="sRGB">
<feFlood flood-opacity="0" result="BackgroundImageFix"/>
<feColorMatrix in="SourceAlpha" type="matrix" values="0 0 0 0 0 0 0 0 0 0 0 0 0 0 0 0 0 0 127 0" result="hardAlpha"/>
<feOffset dy="2"/>
<feGaussianBlur stdDeviation="5"/>
<feComposite in2="hardAlpha" operator="out"/>
<feColorMatrix type="matrix" values="0 0 0 0 0 0 0 0 0 0 0 0 0 0 0 0 0 0 0.25 0"/>
<feBlend mode="normal" in2="BackgroundImageFix" result="effect1_dropShadow_2237_203"/>
<feBlend mode="normal" in="SourceGraphic" in2="effect1_dropShadow_2237_203" result="shape"/>
</filter>
</defs>
</svg>